<svg width="589" height="485" viewBox="0 0 589 485" fill="none" xmlns="http://www.w3.org/2000/svg">
<g filter="url(#filter0_d_28_1975)">
<rect x="40" width="489" height="385" rx="8" fill="white"/>
<path d="M205.459 187V170.08H216.859V172.504H208.435V177.184H216.307V179.632H208.435V184.552H216.859V187H205.459ZM219.228 187V177.904C219.228 177.408 219.212 176.904 219.18 176.392C219.148 175.88 219.1 175.376 219.036 174.88H221.94L222.18 177.28H221.892C222.228 176.448 222.74 175.8 223.428 175.336C224.132 174.872 224.964 174.64 225.924 174.64C226.884 174.64 227.676 174.872 228.3 175.336C228.94 175.784 229.388 176.488 229.644 177.448H229.26C229.596 176.584 230.148 175.904 230.916 175.408C231.684 174.896 232.564 174.64 233.556 174.64C234.916 174.64 235.932 175.04 236.604 175.84C237.276 176.64 237.612 177.888 237.612 179.584V187H234.612V179.704C234.612 178.744 234.452 178.056 234.132 177.64C233.812 177.208 233.3 176.992 232.596 176.992C231.764 176.992 231.108 177.288 230.628 177.88C230.148 178.456 229.908 179.24 229.908 180.232V187H226.908V179.704C226.908 178.744 226.748 178.056 226.428 177.64C226.108 177.208 225.596 176.992 224.892 176.992C224.06 176.992 223.404 177.288 222.924 177.88C222.46 178.456 222.228 179.24 222.228 180.232V187H219.228ZM245.23 187.24C244.174 187.24 243.246 186.992 242.446 186.496C241.646 185.984 241.022 185.256 240.574 184.312C240.126 183.368 239.902 182.24 239.902 180.928C239.902 179.616 240.126 178.496 240.574 177.568C241.022 176.624 241.646 175.904 242.446 175.408C243.246 174.896 244.174 174.64 245.23 174.64C246.254 174.64 247.15 174.896 247.918 175.408C248.702 175.904 249.222 176.576 249.478 177.424H249.214L249.478 174.88H252.358C252.31 175.376 252.262 175.88 252.214 176.392C252.182 176.904 252.166 177.408 252.166 177.904V187H249.19L249.166 184.504H249.454C249.198 185.336 248.678 186 247.894 186.496C247.11 186.992 246.222 187.24 245.23 187.24ZM246.07 184.936C247.014 184.936 247.774 184.608 248.35 183.952C248.926 183.28 249.214 182.272 249.214 180.928C249.214 179.584 248.926 178.584 248.35 177.928C247.774 177.272 247.014 176.944 246.07 176.944C245.126 176.944 244.366 177.272 243.79 177.928C243.214 178.584 242.926 179.584 242.926 180.928C242.926 182.272 243.206 183.28 243.766 183.952C244.342 184.608 245.11 184.936 246.07 184.936ZM255.169 187V174.88H258.169V187H255.169ZM255.001 172.6V169.672H258.337V172.6H255.001ZM261.163 187V169.336H264.163V187H261.163ZM277.03 187L271.798 174.88H274.99L278.782 184.36H278.038L281.926 174.88H284.926L279.67 187H277.03ZM291.891 187.24C289.859 187.24 288.267 186.68 287.115 185.56C285.963 184.44 285.387 182.904 285.387 180.952C285.387 179.688 285.635 178.584 286.131 177.64C286.627 176.696 287.315 175.96 288.195 175.432C289.091 174.904 290.131 174.64 291.315 174.64C292.483 174.64 293.459 174.888 294.243 175.384C295.027 175.88 295.619 176.576 296.019 177.472C296.435 178.368 296.643 179.416 296.643 180.616V181.408H287.811V179.824H294.507L294.099 180.16C294.099 179.04 293.859 178.184 293.379 177.592C292.915 177 292.235 176.704 291.339 176.704C290.347 176.704 289.579 177.056 289.035 177.76C288.507 178.464 288.243 179.448 288.243 180.712V181.024C288.243 182.336 288.563 183.32 289.203 183.976C289.859 184.616 290.779 184.936 291.963 184.936C292.651 184.936 293.291 184.848 293.883 184.672C294.491 184.48 295.067 184.176 295.611 183.76L296.499 185.776C295.923 186.24 295.235 186.6 294.435 186.856C293.635 187.112 292.787 187.24 291.891 187.24ZM298.895 187V177.976C298.895 177.464 298.879 176.944 298.847 176.416C298.831 175.888 298.791 175.376 298.727 174.88H301.631L301.967 178.192H301.487C301.647 177.392 301.911 176.728 302.279 176.2C302.663 175.672 303.127 175.28 303.671 175.024C304.215 174.768 304.807 174.64 305.447 174.64C305.735 174.64 305.967 174.656 306.143 174.688C306.319 174.704 306.495 174.744 306.671 174.808L306.647 177.448C306.343 177.32 306.079 177.24 305.855 177.208C305.647 177.176 305.383 177.16 305.063 177.16C304.375 177.16 303.791 177.304 303.311 177.592C302.847 177.88 302.495 178.28 302.255 178.792C302.031 179.304 301.919 179.888 301.919 180.544V187H298.895ZM308.077 187V174.88H311.077V187H308.077ZM307.909 172.6V169.672H311.245V172.6H307.909ZM314.887 187V177.136H312.559V174.88H315.727L314.887 175.648V173.8C314.887 172.296 315.263 171.16 316.015 170.392C316.783 169.624 317.895 169.24 319.351 169.24C319.703 169.24 320.071 169.264 320.455 169.312C320.855 169.36 321.199 169.448 321.487 169.576V171.928C321.279 171.848 321.031 171.784 320.743 171.736C320.455 171.688 320.175 171.664 319.903 171.664C319.279 171.664 318.783 171.848 318.415 172.216C318.047 172.568 317.863 173.144 317.863 173.944V175.408L317.431 174.88H325.855V187H322.855V177.136H317.887V187H314.887ZM322.687 172.6V169.672H326.023V172.6H322.687ZM334.71 187.24C332.678 187.24 331.086 186.68 329.934 185.56C328.782 184.44 328.206 182.904 328.206 180.952C328.206 179.688 328.454 178.584 328.95 177.64C329.446 176.696 330.134 175.96 331.014 175.432C331.91 174.904 332.95 174.64 334.134 174.64C335.302 174.64 336.278 174.888 337.062 175.384C337.846 175.88 338.438 176.576 338.838 177.472C339.254 178.368 339.462 179.416 339.462 180.616V181.408H330.63V179.824H337.326L336.918 180.16C336.918 179.04 336.678 178.184 336.198 177.592C335.734 177 335.054 176.704 334.158 176.704C333.166 176.704 332.398 177.056 331.854 177.76C331.326 178.464 331.062 179.448 331.062 180.712V181.024C331.062 182.336 331.382 183.32 332.022 183.976C332.678 184.616 333.598 184.936 334.782 184.936C335.47 184.936 336.11 184.848 336.702 184.672C337.31 184.48 337.886 184.176 338.43 183.76L339.318 185.776C338.742 186.24 338.054 186.6 337.254 186.856C336.454 187.112 335.606 187.24 334.71 187.24ZM346.442 187.24C345.386 187.24 344.45 186.992 343.634 186.496C342.834 185.984 342.21 185.256 341.762 184.312C341.314 183.368 341.09 182.24 341.09 180.928C341.09 179.616 341.314 178.496 341.762 177.568C342.21 176.624 342.834 175.904 343.634 175.408C344.45 174.896 345.386 174.64 346.442 174.64C347.45 174.64 348.338 174.888 349.106 175.384C349.89 175.864 350.41 176.52 350.666 177.352H350.354V169.336H353.354V187H350.402V184.432H350.69C350.434 185.296 349.914 185.984 349.13 186.496C348.362 186.992 347.466 187.24 346.442 187.24ZM347.282 184.936C348.226 184.936 348.986 184.608 349.562 183.952C350.138 183.28 350.426 182.272 350.426 180.928C350.426 179.584 350.138 178.584 349.562 177.928C348.986 177.272 348.226 176.944 347.282 176.944C346.338 176.944 345.57 177.272 344.978 177.928C344.402 178.584 344.114 179.584 344.114 180.928C344.114 182.272 344.402 183.28 344.978 183.952C345.57 184.608 346.338 184.936 347.282 184.936ZM363.111 181.984L362.175 170.08H365.871L364.935 181.984H363.111ZM362.343 187V183.664H365.703V187H362.343Z" fill="#1D1D18"/>
<path d="M137.715 216V207.862H134.543V206.835H142.122V207.862H138.937V216H137.715ZM143.226 216V206.432H144.409V210.878H144.24C144.431 210.375 144.738 209.994 145.163 209.734C145.588 209.474 146.077 209.344 146.632 209.344C147.421 209.344 148.001 209.556 148.374 209.981C148.755 210.406 148.946 211.047 148.946 211.905V216H147.763V211.97C147.763 211.389 147.65 210.969 147.425 210.709C147.2 210.44 146.831 210.306 146.32 210.306C145.748 210.306 145.284 210.484 144.929 210.839C144.582 211.194 144.409 211.667 144.409 212.256V216H143.226ZM153.8 216.117C152.76 216.117 151.936 215.818 151.33 215.22C150.732 214.622 150.433 213.799 150.433 212.75C150.433 212.057 150.563 211.459 150.823 210.956C151.091 210.445 151.46 210.05 151.928 209.773C152.396 209.487 152.942 209.344 153.566 209.344C154.164 209.344 154.671 209.474 155.087 209.734C155.503 209.985 155.819 210.345 156.036 210.813C156.252 211.281 156.361 211.836 156.361 212.477V212.867H151.356V212.165H155.555L155.334 212.334C155.334 211.658 155.182 211.134 154.879 210.761C154.584 210.388 154.146 210.202 153.566 210.202C152.933 210.202 152.443 210.423 152.097 210.865C151.75 211.298 151.577 211.892 151.577 212.646V212.763C151.577 213.56 151.772 214.163 152.162 214.57C152.56 214.977 153.111 215.181 153.813 215.181C154.203 215.181 154.567 215.125 154.905 215.012C155.243 214.899 155.568 214.713 155.88 214.453L156.27 215.272C155.975 215.541 155.607 215.749 155.165 215.896C154.731 216.043 154.276 216.117 153.8 216.117ZM163.142 216L160.347 209.461H161.621L163.896 215.077H163.532L165.846 209.461H167.055L164.247 216H163.142ZM170.979 216.117C169.939 216.117 169.115 215.818 168.509 215.22C167.911 214.622 167.612 213.799 167.612 212.75C167.612 212.057 167.742 211.459 168.002 210.956C168.27 210.445 168.639 210.05 169.107 209.773C169.575 209.487 170.121 209.344 170.745 209.344C171.343 209.344 171.85 209.474 172.266 209.734C172.682 209.985 172.998 210.345 173.215 210.813C173.431 211.281 173.54 211.836 173.54 212.477V212.867H168.535V212.165H172.734L172.513 212.334C172.513 211.658 172.361 211.134 172.058 210.761C171.763 210.388 171.325 210.202 170.745 210.202C170.112 210.202 169.622 210.423 169.276 210.865C168.929 211.298 168.756 211.892 168.756 212.646V212.763C168.756 213.56 168.951 214.163 169.341 214.57C169.739 214.977 170.29 215.181 170.992 215.181C171.382 215.181 171.746 215.125 172.084 215.012C172.422 214.899 172.747 214.713 173.059 214.453L173.449 215.272C173.154 215.541 172.786 215.749 172.344 215.896C171.91 216.043 171.455 216.117 170.979 216.117ZM175.014 216V211.06C175.014 210.8 175.006 210.536 174.988 210.267C174.98 209.99 174.958 209.721 174.923 209.461H176.067L176.21 211.099L176.015 211.112C176.102 210.713 176.249 210.384 176.457 210.124C176.674 209.855 176.93 209.66 177.224 209.539C177.528 209.409 177.84 209.344 178.16 209.344C178.299 209.344 178.416 209.348 178.511 209.357C178.607 209.366 178.702 209.387 178.797 209.422L178.771 210.475C178.641 210.423 178.52 210.393 178.407 210.384C178.303 210.367 178.173 210.358 178.017 210.358C177.636 210.358 177.307 210.445 177.029 210.618C176.761 210.791 176.553 211.021 176.405 211.307C176.267 211.593 176.197 211.901 176.197 212.23V216H175.014ZM179.78 216V209.461H180.963V216H179.78ZM179.676 208.031V206.757H181.08V208.031H179.676ZM183.247 216V210.371H181.973V209.461H183.572L183.247 209.76V208.707C183.247 207.944 183.433 207.368 183.806 206.978C184.187 206.579 184.733 206.38 185.444 206.38C185.617 206.38 185.799 206.393 185.99 206.419C186.189 206.445 186.354 206.488 186.484 206.549V207.511C186.38 207.468 186.25 207.433 186.094 207.407C185.938 207.381 185.786 207.368 185.639 207.368C185.249 207.368 184.95 207.485 184.742 207.719C184.534 207.944 184.43 208.3 184.43 208.785V209.708L184.248 209.461H188.525V216H187.342V210.371H184.43V216H183.247ZM187.225 208.031V206.757H188.629V208.031H187.225ZM193.419 216.117C192.379 216.117 191.555 215.818 190.949 215.22C190.351 214.622 190.052 213.799 190.052 212.75C190.052 212.057 190.182 211.459 190.442 210.956C190.71 210.445 191.079 210.05 191.547 209.773C192.015 209.487 192.561 209.344 193.185 209.344C193.783 209.344 194.29 209.474 194.706 209.734C195.122 209.985 195.438 210.345 195.655 210.813C195.871 211.281 195.98 211.836 195.98 212.477V212.867H190.975V212.165H195.174L194.953 212.334C194.953 211.658 194.801 211.134 194.498 210.761C194.203 210.388 193.765 210.202 193.185 210.202C192.552 210.202 192.062 210.423 191.716 210.865C191.369 211.298 191.196 211.892 191.196 212.646V212.763C191.196 213.56 191.391 214.163 191.781 214.57C192.179 214.977 192.73 215.181 193.432 215.181C193.822 215.181 194.186 215.125 194.524 215.012C194.862 214.899 195.187 214.713 195.499 214.453L195.889 215.272C195.594 215.541 195.226 215.749 194.784 215.896C194.35 216.043 193.895 216.117 193.419 216.117ZM199.963 216.117C199.391 216.117 198.888 215.983 198.455 215.714C198.022 215.445 197.684 215.055 197.441 214.544C197.198 214.033 197.077 213.426 197.077 212.724C197.077 212.022 197.198 211.42 197.441 210.917C197.684 210.406 198.022 210.016 198.455 209.747C198.888 209.478 199.391 209.344 199.963 209.344C200.535 209.344 201.033 209.487 201.458 209.773C201.891 210.059 202.182 210.453 202.329 210.956H202.173V206.432H203.356V216H202.186V214.479H202.329C202.19 214.99 201.904 215.393 201.471 215.688C201.046 215.974 200.544 216.117 199.963 216.117ZM200.236 215.181C200.825 215.181 201.298 214.973 201.653 214.557C202.017 214.141 202.199 213.53 202.199 212.724C202.199 211.918 202.017 211.311 201.653 210.904C201.298 210.497 200.825 210.293 200.236 210.293C199.647 210.293 199.17 210.497 198.806 210.904C198.451 211.311 198.273 211.918 198.273 212.724C198.273 213.53 198.451 214.141 198.806 214.557C199.17 214.973 199.647 215.181 200.236 215.181ZM211.626 216.117C210.586 216.117 209.763 215.818 209.156 215.22C208.558 214.622 208.259 213.799 208.259 212.75C208.259 212.057 208.389 211.459 208.649 210.956C208.918 210.445 209.286 210.05 209.754 209.773C210.222 209.487 210.768 209.344 211.392 209.344C211.99 209.344 212.497 209.474 212.913 209.734C213.329 209.985 213.645 210.345 213.862 210.813C214.079 211.281 214.187 211.836 214.187 212.477V212.867H209.182V212.165H213.381L213.16 212.334C213.16 211.658 213.008 211.134 212.705 210.761C212.41 210.388 211.973 210.202 211.392 210.202C210.759 210.202 210.27 210.423 209.923 210.865C209.576 211.298 209.403 211.892 209.403 212.646V212.763C209.403 213.56 209.598 214.163 209.988 214.57C210.387 214.977 210.937 215.181 211.639 215.181C212.029 215.181 212.393 215.125 212.731 215.012C213.069 214.899 213.394 214.713 213.706 214.453L214.096 215.272C213.801 215.541 213.433 215.749 212.991 215.896C212.558 216.043 212.103 216.117 211.626 216.117ZM215.674 216V211.008C215.674 210.757 215.666 210.501 215.648 210.241C215.631 209.981 215.605 209.721 215.57 209.461H216.714L216.844 210.865H216.688C216.862 210.38 217.139 210.007 217.52 209.747C217.902 209.478 218.357 209.344 218.885 209.344C219.423 209.344 219.865 209.474 220.211 209.734C220.558 209.985 220.792 210.384 220.913 210.93H220.718C220.883 210.445 221.173 210.059 221.589 209.773C222.005 209.487 222.491 209.344 223.045 209.344C223.765 209.344 224.306 209.556 224.67 209.981C225.034 210.397 225.216 211.047 225.216 211.931V216H224.033V211.996C224.033 211.398 223.929 210.969 223.721 210.709C223.513 210.44 223.184 210.306 222.733 210.306C222.205 210.306 221.789 210.488 221.485 210.852C221.182 211.207 221.03 211.693 221.03 212.308V216H219.847V211.996C219.847 211.398 219.743 210.969 219.535 210.709C219.336 210.44 219.007 210.306 218.547 210.306C218.019 210.306 217.603 210.488 217.299 210.852C217.005 211.207 216.857 211.693 216.857 212.308V216H215.674ZM229.588 216.117C229.016 216.117 228.514 215.983 228.08 215.714C227.647 215.445 227.309 215.055 227.066 214.544C226.824 214.033 226.702 213.426 226.702 212.724C226.702 212.022 226.824 211.42 227.066 210.917C227.309 210.406 227.647 210.016 228.08 209.747C228.514 209.478 229.016 209.344 229.588 209.344C230.169 209.344 230.672 209.491 231.096 209.786C231.53 210.072 231.816 210.466 231.954 210.969H231.798L231.941 209.461H233.085C233.059 209.721 233.033 209.981 233.007 210.241C232.99 210.501 232.981 210.757 232.981 211.008V216H231.798V214.505H231.941C231.803 214.999 231.517 215.393 231.083 215.688C230.659 215.974 230.16 216.117 229.588 216.117ZM229.861 215.181C230.451 215.181 230.923 214.973 231.278 214.557C231.634 214.141 231.811 213.53 231.811 212.724C231.811 211.918 231.634 211.311 231.278 210.904C230.923 210.497 230.451 210.293 229.861 210.293C229.272 210.293 228.795 210.497 228.431 210.904C228.076 211.311 227.898 211.918 227.898 212.724C227.898 213.53 228.076 214.141 228.431 214.557C228.787 214.973 229.263 215.181 229.861 215.181ZM234.905 216V209.461H236.088V216H234.905ZM234.801 208.031V206.757H236.205V208.031H234.801ZM238.008 216V206.432H239.191V216H238.008ZM246.976 216.117C246.404 216.117 245.901 215.983 245.468 215.714C245.034 215.445 244.696 215.055 244.454 214.544C244.211 214.033 244.09 213.426 244.09 212.724C244.09 212.022 244.211 211.42 244.454 210.917C244.696 210.406 245.034 210.016 245.468 209.747C245.901 209.478 246.404 209.344 246.976 209.344C247.556 209.344 248.059 209.491 248.484 209.786C248.917 210.072 249.203 210.466 249.342 210.969H249.186L249.329 209.461H250.473C250.447 209.721 250.421 209.981 250.395 210.241C250.377 210.501 250.369 210.757 250.369 211.008V216H249.186V214.505H249.329C249.19 214.999 248.904 215.393 248.471 215.688C248.046 215.974 247.548 216.117 246.976 216.117ZM247.249 215.181C247.838 215.181 248.31 214.973 248.666 214.557C249.021 214.141 249.199 213.53 249.199 212.724C249.199 211.918 249.021 211.311 248.666 210.904C248.31 210.497 247.838 210.293 247.249 210.293C246.659 210.293 246.183 210.497 245.819 210.904C245.463 211.311 245.286 211.918 245.286 212.724C245.286 213.53 245.463 214.141 245.819 214.557C246.174 214.973 246.651 215.181 247.249 215.181ZM254.788 216.117C254.216 216.117 253.713 215.983 253.28 215.714C252.847 215.445 252.509 215.055 252.266 214.544C252.023 214.033 251.902 213.426 251.902 212.724C251.902 212.022 252.023 211.42 252.266 210.917C252.509 210.406 252.847 210.016 253.28 209.747C253.713 209.478 254.216 209.344 254.788 209.344C255.36 209.344 255.858 209.487 256.283 209.773C256.716 210.059 257.007 210.453 257.154 210.956H256.998V206.432H258.181V216H257.011V214.479H257.154C257.015 214.99 256.729 215.393 256.296 215.688C255.871 215.974 255.369 216.117 254.788 216.117ZM255.061 215.181C255.65 215.181 256.123 214.973 256.478 214.557C256.842 214.141 257.024 213.53 257.024 212.724C257.024 211.918 256.842 211.311 256.478 210.904C256.123 210.497 255.65 210.293 255.061 210.293C254.472 210.293 253.995 210.497 253.631 210.904C253.276 211.311 253.098 211.918 253.098 212.724C253.098 213.53 253.276 214.141 253.631 214.557C253.995 214.973 254.472 215.181 255.061 215.181ZM262.601 216.117C262.029 216.117 261.526 215.983 261.093 215.714C260.659 215.445 260.321 215.055 260.079 214.544C259.836 214.033 259.715 213.426 259.715 212.724C259.715 212.022 259.836 211.42 260.079 210.917C260.321 210.406 260.659 210.016 261.093 209.747C261.526 209.478 262.029 209.344 262.601 209.344C263.173 209.344 263.671 209.487 264.096 209.773C264.529 210.059 264.819 210.453 264.967 210.956H264.811V206.432H265.994V216H264.824V214.479H264.967C264.828 214.99 264.542 215.393 264.109 215.688C263.684 215.974 263.181 216.117 262.601 216.117ZM262.874 215.181C263.463 215.181 263.935 214.973 264.291 214.557C264.655 214.141 264.837 213.53 264.837 212.724C264.837 211.918 264.655 211.311 264.291 210.904C263.935 210.497 263.463 210.293 262.874 210.293C262.284 210.293 261.808 210.497 261.444 210.904C261.088 211.311 260.911 211.918 260.911 212.724C260.911 213.53 261.088 214.141 261.444 214.557C261.808 214.973 262.284 215.181 262.874 215.181ZM267.904 216V211.06C267.904 210.8 267.896 210.536 267.878 210.267C267.87 209.99 267.848 209.721 267.813 209.461H268.957L269.1 211.099L268.905 211.112C268.992 210.713 269.139 210.384 269.347 210.124C269.564 209.855 269.82 209.66 270.114 209.539C270.418 209.409 270.73 209.344 271.05 209.344C271.189 209.344 271.306 209.348 271.401 209.357C271.497 209.366 271.592 209.387 271.687 209.422L271.661 210.475C271.531 210.423 271.41 210.393 271.297 210.384C271.193 210.367 271.063 210.358 270.907 210.358C270.526 210.358 270.197 210.445 269.919 210.618C269.651 210.791 269.443 211.021 269.295 211.307C269.157 211.593 269.087 211.901 269.087 212.23V216H267.904ZM275.559 216.117C274.519 216.117 273.695 215.818 273.089 215.22C272.491 214.622 272.192 213.799 272.192 212.75C272.192 212.057 272.322 211.459 272.582 210.956C272.85 210.445 273.219 210.05 273.687 209.773C274.155 209.487 274.701 209.344 275.325 209.344C275.923 209.344 276.43 209.474 276.846 209.734C277.262 209.985 277.578 210.345 277.795 210.813C278.011 211.281 278.12 211.836 278.12 212.477V212.867H273.115V212.165H277.314L277.093 212.334C277.093 211.658 276.941 211.134 276.638 210.761C276.343 210.388 275.905 210.202 275.325 210.202C274.692 210.202 274.202 210.423 273.856 210.865C273.509 211.298 273.336 211.892 273.336 212.646V212.763C273.336 213.56 273.531 214.163 273.921 214.57C274.319 214.977 274.87 215.181 275.572 215.181C275.962 215.181 276.326 215.125 276.664 215.012C277.002 214.899 277.327 214.713 277.639 214.453L278.029 215.272C277.734 215.541 277.366 215.749 276.924 215.896C276.49 216.043 276.035 216.117 275.559 216.117ZM281.817 216.117C281.288 216.117 280.794 216.048 280.335 215.909C279.884 215.77 279.512 215.571 279.217 215.311L279.594 214.492C279.915 214.735 280.266 214.921 280.647 215.051C281.037 215.172 281.436 215.233 281.843 215.233C282.337 215.233 282.71 215.142 282.961 214.96C283.221 214.778 283.351 214.535 283.351 214.232C283.351 213.989 283.269 213.794 283.104 213.647C282.939 213.5 282.679 213.391 282.324 213.322L281.089 213.075C280.534 212.945 280.114 212.737 279.828 212.451C279.551 212.156 279.412 211.779 279.412 211.32C279.412 210.939 279.516 210.601 279.724 210.306C279.932 210.003 280.227 209.769 280.608 209.604C280.998 209.431 281.453 209.344 281.973 209.344C282.45 209.344 282.892 209.413 283.299 209.552C283.715 209.691 284.057 209.894 284.326 210.163L283.936 210.956C283.667 210.722 283.364 210.544 283.026 210.423C282.697 210.293 282.359 210.228 282.012 210.228C281.509 210.228 281.137 210.328 280.894 210.527C280.651 210.718 280.53 210.969 280.53 211.281C280.53 211.515 280.604 211.71 280.751 211.866C280.898 212.013 281.137 212.126 281.466 212.204L282.701 212.451C283.282 212.572 283.719 212.772 284.014 213.049C284.309 213.326 284.456 213.695 284.456 214.154C284.456 214.561 284.343 214.912 284.118 215.207C283.901 215.502 283.594 215.727 283.195 215.883C282.805 216.039 282.346 216.117 281.817 216.117ZM288.22 216.117C287.692 216.117 287.198 216.048 286.738 215.909C286.288 215.77 285.915 215.571 285.62 215.311L285.997 214.492C286.318 214.735 286.669 214.921 287.05 215.051C287.44 215.172 287.839 215.233 288.246 215.233C288.74 215.233 289.113 215.142 289.364 214.96C289.624 214.778 289.754 214.535 289.754 214.232C289.754 213.989 289.672 213.794 289.507 213.647C289.343 213.5 289.083 213.391 288.727 213.322L287.492 213.075C286.938 212.945 286.517 212.737 286.231 212.451C285.954 212.156 285.815 211.779 285.815 211.32C285.815 210.939 285.919 210.601 286.127 210.306C286.335 210.003 286.63 209.769 287.011 209.604C287.401 209.431 287.856 209.344 288.376 209.344C288.853 209.344 289.295 209.413 289.702 209.552C290.118 209.691 290.461 209.894 290.729 210.163L290.339 210.956C290.071 210.722 289.767 210.544 289.429 210.423C289.1 210.293 288.762 210.228 288.415 210.228C287.913 210.228 287.54 210.328 287.297 210.527C287.055 210.718 286.933 210.969 286.933 211.281C286.933 211.515 287.007 211.71 287.154 211.866C287.302 212.013 287.54 212.126 287.869 212.204L289.104 212.451C289.685 212.572 290.123 212.772 290.417 213.049C290.712 213.326 290.859 213.695 290.859 214.154C290.859 214.561 290.747 214.912 290.521 215.207C290.305 215.502 289.997 215.727 289.598 215.883C289.208 216.039 288.749 216.117 288.22 216.117ZM297.551 216L295.107 209.461H296.342L298.318 215.064H297.98L300.008 209.461H300.97L302.985 215.064H302.66L304.649 209.461H305.832L303.375 216H302.257L300.177 210.306H300.749L298.682 216H297.551ZM307.061 216V209.461H308.244V216H307.061ZM306.957 208.031V206.757H308.361V208.031H306.957ZM310.164 216V206.432H311.347V216H310.164ZM313.267 216V206.432H314.45V216H313.267ZM323.132 216.117C322.551 216.117 322.048 215.974 321.624 215.688C321.199 215.393 320.917 214.99 320.779 214.479H320.922V216H319.739V206.432H320.922V210.956H320.779C320.926 210.453 321.208 210.059 321.624 209.773C322.048 209.487 322.551 209.344 323.132 209.344C323.712 209.344 324.219 209.483 324.653 209.76C325.086 210.029 325.42 210.414 325.654 210.917C325.896 211.42 326.018 212.026 326.018 212.737C326.018 213.439 325.896 214.046 325.654 214.557C325.42 215.06 325.082 215.445 324.64 215.714C324.206 215.983 323.704 216.117 323.132 216.117ZM322.859 215.181C323.448 215.181 323.92 214.977 324.276 214.57C324.64 214.154 324.822 213.543 324.822 212.737C324.822 211.931 324.64 211.324 324.276 210.917C323.92 210.501 323.448 210.293 322.859 210.293C322.261 210.293 321.784 210.497 321.429 210.904C321.082 211.311 320.909 211.918 320.909 212.724C320.909 213.53 321.082 214.141 321.429 214.557C321.784 214.973 322.261 215.181 322.859 215.181ZM330.528 216.117C329.488 216.117 328.665 215.818 328.058 215.22C327.46 214.622 327.161 213.799 327.161 212.75C327.161 212.057 327.291 211.459 327.551 210.956C327.82 210.445 328.188 210.05 328.656 209.773C329.124 209.487 329.67 209.344 330.294 209.344C330.892 209.344 331.399 209.474 331.815 209.734C332.231 209.985 332.548 210.345 332.764 210.813C332.981 211.281 333.089 211.836 333.089 212.477V212.867H328.084V212.165H332.283L332.062 212.334C332.062 211.658 331.911 211.134 331.607 210.761C331.313 210.388 330.875 210.202 330.294 210.202C329.662 210.202 329.172 210.423 328.825 210.865C328.479 211.298 328.305 211.892 328.305 212.646V212.763C328.305 213.56 328.5 214.163 328.89 214.57C329.289 214.977 329.839 215.181 330.541 215.181C330.931 215.181 331.295 215.125 331.633 215.012C331.971 214.899 332.296 214.713 332.608 214.453L332.998 215.272C332.704 215.541 332.335 215.749 331.893 215.896C331.46 216.043 331.005 216.117 330.528 216.117ZM340.442 216.117C339.87 216.117 339.367 215.983 338.934 215.714C338.501 215.445 338.163 215.055 337.92 214.544C337.677 214.033 337.556 213.426 337.556 212.724C337.556 212.022 337.677 211.42 337.92 210.917C338.163 210.406 338.501 210.016 338.934 209.747C339.367 209.478 339.87 209.344 340.442 209.344C341.023 209.344 341.525 209.491 341.95 209.786C342.383 210.072 342.669 210.466 342.808 210.969H342.652L342.795 209.461H343.939C343.913 209.721 343.887 209.981 343.861 210.241C343.844 210.501 343.835 210.757 343.835 211.008V216H342.652V214.505H342.795C342.656 214.999 342.37 215.393 341.937 215.688C341.512 215.974 341.014 216.117 340.442 216.117ZM340.715 215.181C341.304 215.181 341.777 214.973 342.132 214.557C342.487 214.141 342.665 213.53 342.665 212.724C342.665 211.918 342.487 211.311 342.132 210.904C341.777 210.497 341.304 210.293 340.715 210.293C340.126 210.293 339.649 210.497 339.285 210.904C338.93 211.311 338.752 211.918 338.752 212.724C338.752 213.53 338.93 214.141 339.285 214.557C339.64 214.973 340.117 215.181 340.715 215.181ZM347.969 216.117C347.44 216.117 346.946 216.048 346.487 215.909C346.036 215.77 345.663 215.571 345.369 215.311L345.746 214.492C346.066 214.735 346.417 214.921 346.799 215.051C347.189 215.172 347.587 215.233 347.995 215.233C348.489 215.233 348.861 215.142 349.113 214.96C349.373 214.778 349.503 214.535 349.503 214.232C349.503 213.989 349.42 213.794 349.256 213.647C349.091 213.5 348.831 213.391 348.476 213.322L347.241 213.075C346.686 212.945 346.266 212.737 345.98 212.451C345.702 212.156 345.564 211.779 345.564 211.32C345.564 210.939 345.668 210.601 345.876 210.306C346.084 210.003 346.378 209.769 346.76 209.604C347.15 209.431 347.605 209.344 348.125 209.344C348.601 209.344 349.043 209.413 349.451 209.552C349.867 209.691 350.209 209.894 350.478 210.163L350.088 210.956C349.819 210.722 349.516 210.544 349.178 210.423C348.848 210.293 348.51 210.228 348.164 210.228C347.661 210.228 347.288 210.328 347.046 210.527C346.803 210.718 346.682 210.969 346.682 211.281C346.682 211.515 346.755 211.71 346.903 211.866C347.05 212.013 347.288 212.126 347.618 212.204L348.853 212.451C349.433 212.572 349.871 212.772 350.166 213.049C350.46 213.326 350.608 213.695 350.608 214.154C350.608 214.561 350.495 214.912 350.27 215.207C350.053 215.502 349.745 215.727 349.347 215.883C348.957 216.039 348.497 216.117 347.969 216.117ZM354.372 216.117C353.843 216.117 353.349 216.048 352.89 215.909C352.439 215.77 352.067 215.571 351.772 215.311L352.149 214.492C352.47 214.735 352.821 214.921 353.202 215.051C353.592 215.172 353.991 215.233 354.398 215.233C354.892 215.233 355.265 215.142 355.516 214.96C355.776 214.778 355.906 214.535 355.906 214.232C355.906 213.989 355.824 213.794 355.659 213.647C355.494 213.5 355.234 213.391 354.879 213.322L353.644 213.075C353.089 212.945 352.669 212.737 352.383 212.451C352.106 212.156 351.967 211.779 351.967 211.32C351.967 210.939 352.071 210.601 352.279 210.306C352.487 210.003 352.782 209.769 353.163 209.604C353.553 209.431 354.008 209.344 354.528 209.344C355.005 209.344 355.447 209.413 355.854 209.552C356.27 209.691 356.612 209.894 356.881 210.163L356.491 210.956C356.222 210.722 355.919 210.544 355.581 210.423C355.252 210.293 354.914 210.228 354.567 210.228C354.064 210.228 353.692 210.328 353.449 210.527C353.206 210.718 353.085 210.969 353.085 211.281C353.085 211.515 353.159 211.71 353.306 211.866C353.453 212.013 353.692 212.126 354.021 212.204L355.256 212.451C355.837 212.572 356.274 212.772 356.569 213.049C356.864 213.326 357.011 213.695 357.011 214.154C357.011 214.561 356.898 214.912 356.673 215.207C356.456 215.502 356.149 215.727 355.75 215.883C355.36 216.039 354.901 216.117 354.372 216.117ZM361.321 216.117C360.68 216.117 360.125 215.983 359.657 215.714C359.189 215.437 358.825 215.047 358.565 214.544C358.305 214.033 358.175 213.426 358.175 212.724C358.175 212.031 358.305 211.433 358.565 210.93C358.825 210.419 359.189 210.029 359.657 209.76C360.125 209.483 360.68 209.344 361.321 209.344C361.963 209.344 362.517 209.483 362.985 209.76C363.462 210.029 363.826 210.419 364.077 210.93C364.337 211.433 364.467 212.031 364.467 212.724C364.467 213.426 364.337 214.033 364.077 214.544C363.826 215.047 363.462 215.437 362.985 215.714C362.517 215.983 361.963 216.117 361.321 216.117ZM361.321 215.181C361.911 215.181 362.383 214.973 362.738 214.557C363.094 214.141 363.271 213.53 363.271 212.724C363.271 211.918 363.094 211.311 362.738 210.904C362.383 210.497 361.911 210.293 361.321 210.293C360.723 210.293 360.247 210.497 359.891 210.904C359.545 211.311 359.371 211.918 359.371 212.724C359.371 213.53 359.545 214.141 359.891 214.557C360.247 214.973 360.723 215.181 361.321 215.181ZM368.805 216.117C368.155 216.117 367.592 215.983 367.115 215.714C366.638 215.437 366.266 215.042 365.997 214.531C365.737 214.011 365.607 213.396 365.607 212.685C365.607 211.983 365.741 211.385 366.01 210.891C366.279 210.388 366.651 210.007 367.128 209.747C367.605 209.478 368.164 209.344 368.805 209.344C369.23 209.344 369.641 209.418 370.04 209.565C370.439 209.704 370.764 209.907 371.015 210.176L370.612 211.008C370.361 210.765 370.083 210.588 369.78 210.475C369.477 210.354 369.178 210.293 368.883 210.293C368.242 210.293 367.739 210.501 367.375 210.917C367.011 211.324 366.829 211.918 366.829 212.698C366.829 213.487 367.011 214.093 367.375 214.518C367.739 214.943 368.242 215.155 368.883 215.155C369.169 215.155 369.464 215.099 369.767 214.986C370.07 214.873 370.352 214.696 370.612 214.453L371.015 215.272C370.755 215.549 370.421 215.762 370.014 215.909C369.615 216.048 369.212 216.117 368.805 216.117ZM372.4 216V209.461H373.583V216H372.4ZM372.296 208.031V206.757H373.7V208.031H372.296ZM377.999 216.117C377.427 216.117 376.924 215.983 376.491 215.714C376.058 215.445 375.72 215.055 375.477 214.544C375.234 214.033 375.113 213.426 375.113 212.724C375.113 212.022 375.234 211.42 375.477 210.917C375.72 210.406 376.058 210.016 376.491 209.747C376.924 209.478 377.427 209.344 377.999 209.344C378.58 209.344 379.082 209.491 379.507 209.786C379.94 210.072 380.226 210.466 380.365 210.969H380.209L380.352 209.461H381.496C381.47 209.721 381.444 209.981 381.418 210.241C381.401 210.501 381.392 210.757 381.392 211.008V216H380.209V214.505H380.352C380.213 214.999 379.927 215.393 379.494 215.688C379.069 215.974 378.571 216.117 377.999 216.117ZM378.272 215.181C378.861 215.181 379.334 214.973 379.689 214.557C380.044 214.141 380.222 213.53 380.222 212.724C380.222 211.918 380.044 211.311 379.689 210.904C379.334 210.497 378.861 210.293 378.272 210.293C377.683 210.293 377.206 210.497 376.842 210.904C376.487 211.311 376.309 211.918 376.309 212.724C376.309 213.53 376.487 214.141 376.842 214.557C377.197 214.973 377.674 215.181 378.272 215.181ZM385.76 216.117C385.075 216.117 384.555 215.931 384.2 215.558C383.853 215.177 383.68 214.605 383.68 213.842V210.371H382.406V209.461H383.68V207.706L384.863 207.381V209.461H386.709V210.371H384.863V213.738C384.863 214.241 384.949 214.6 385.123 214.817C385.305 215.025 385.565 215.129 385.903 215.129C386.076 215.129 386.223 215.116 386.345 215.09C386.475 215.055 386.592 215.016 386.696 214.973V215.948C386.566 216 386.414 216.039 386.241 216.065C386.076 216.1 385.916 216.117 385.76 216.117ZM390.805 216.117C389.765 216.117 388.941 215.818 388.335 215.22C387.737 214.622 387.438 213.799 387.438 212.75C387.438 212.057 387.568 211.459 387.828 210.956C388.096 210.445 388.465 210.05 388.933 209.773C389.401 209.487 389.947 209.344 390.571 209.344C391.169 209.344 391.676 209.474 392.092 209.734C392.508 209.985 392.824 210.345 393.041 210.813C393.257 211.281 393.366 211.836 393.366 212.477V212.867H388.361V212.165H392.56L392.339 212.334C392.339 211.658 392.187 211.134 391.884 210.761C391.589 210.388 391.151 210.202 390.571 210.202C389.938 210.202 389.448 210.423 389.102 210.865C388.755 211.298 388.582 211.892 388.582 212.646V212.763C388.582 213.56 388.777 214.163 389.167 214.57C389.565 214.977 390.116 215.181 390.818 215.181C391.208 215.181 391.572 215.125 391.91 215.012C392.248 214.899 392.573 214.713 392.885 214.453L393.275 215.272C392.98 215.541 392.612 215.749 392.17 215.896C391.736 216.043 391.281 216.117 390.805 216.117ZM397.349 216.117C396.777 216.117 396.274 215.983 395.841 215.714C395.408 215.445 395.07 215.055 394.827 214.544C394.584 214.033 394.463 213.426 394.463 212.724C394.463 212.022 394.584 211.42 394.827 210.917C395.07 210.406 395.408 210.016 395.841 209.747C396.274 209.478 396.777 209.344 397.349 209.344C397.921 209.344 398.419 209.487 398.844 209.773C399.277 210.059 399.568 210.453 399.715 210.956H399.559V206.432H400.742V216H399.572V214.479H399.715C399.576 214.99 399.29 215.393 398.857 215.688C398.432 215.974 397.93 216.117 397.349 216.117ZM397.622 215.181C398.211 215.181 398.684 214.973 399.039 214.557C399.403 214.141 399.585 213.53 399.585 212.724C399.585 211.918 399.403 211.311 399.039 210.904C398.684 210.497 398.211 210.293 397.622 210.293C397.033 210.293 396.556 210.497 396.192 210.904C395.837 211.311 395.659 211.918 395.659 212.724C395.659 213.53 395.837 214.141 396.192 214.557C396.556 214.973 397.033 215.181 397.622 215.181ZM407.803 216L405.359 209.461H406.594L408.57 215.064H408.232L410.26 209.461H411.222L413.237 215.064H412.912L414.901 209.461H416.084L413.627 216H412.509L410.429 210.306H411.001L408.934 216H407.803ZM417.313 216V209.461H418.496V216H417.313ZM417.209 208.031V206.757H418.613V208.031H417.209ZM422.86 216.117C422.175 216.117 421.655 215.931 421.3 215.558C420.953 215.177 420.78 214.605 420.78 213.842V210.371H419.506V209.461H420.78V207.706L421.963 207.381V209.461H423.809V210.371H421.963V213.738C421.963 214.241 422.05 214.6 422.223 214.817C422.405 215.025 422.665 215.129 423.003 215.129C423.176 215.129 423.324 215.116 423.445 215.09C423.575 215.055 423.692 215.016 423.796 214.973V215.948C423.666 216 423.514 216.039 423.341 216.065C423.176 216.1 423.016 216.117 422.86 216.117ZM424.991 216V206.432H426.174V210.878H426.005C426.196 210.375 426.504 209.994 426.928 209.734C427.353 209.474 427.843 209.344 428.397 209.344C429.186 209.344 429.767 209.556 430.139 209.981C430.521 210.406 430.711 211.047 430.711 211.905V216H429.528V211.97C429.528 211.389 429.416 210.969 429.19 210.709C428.965 210.44 428.597 210.306 428.085 210.306C427.513 210.306 427.05 210.484 426.694 210.839C426.348 211.194 426.174 211.667 426.174 212.256V216H424.991ZM131.077 237.951L130.804 236.989C131.211 236.894 131.549 236.781 131.818 236.651C132.086 236.53 132.312 236.369 132.494 236.17C132.676 235.971 132.836 235.719 132.975 235.416L133.3 234.636L133.274 235.13L130.427 228.461H131.701L133.976 234.064H133.638L135.913 228.461H137.135L134.132 235.507C133.95 235.932 133.75 236.287 133.534 236.573C133.326 236.859 133.096 237.093 132.845 237.275C132.602 237.457 132.333 237.6 132.039 237.704C131.744 237.808 131.423 237.89 131.077 237.951ZM140.838 235.117C140.197 235.117 139.642 234.983 139.174 234.714C138.706 234.437 138.342 234.047 138.082 233.544C137.822 233.033 137.692 232.426 137.692 231.724C137.692 231.031 137.822 230.433 138.082 229.93C138.342 229.419 138.706 229.029 139.174 228.76C139.642 228.483 140.197 228.344 140.838 228.344C141.479 228.344 142.034 228.483 142.502 228.76C142.979 229.029 143.343 229.419 143.594 229.93C143.854 230.433 143.984 231.031 143.984 231.724C143.984 232.426 143.854 233.033 143.594 233.544C143.343 234.047 142.979 234.437 142.502 234.714C142.034 234.983 141.479 235.117 140.838 235.117ZM140.838 234.181C141.427 234.181 141.9 233.973 142.255 233.557C142.61 233.141 142.788 232.53 142.788 231.724C142.788 230.918 142.61 230.311 142.255 229.904C141.9 229.497 141.427 229.293 140.838 229.293C140.24 229.293 139.763 229.497 139.408 229.904C139.061 230.311 138.888 230.918 138.888 231.724C138.888 232.53 139.061 233.141 139.408 233.557C139.763 233.973 140.24 234.181 140.838 234.181ZM147.841 235.117C147.052 235.117 146.458 234.905 146.06 234.48C145.67 234.055 145.475 233.401 145.475 232.517V228.461H146.658V232.491C146.658 233.063 146.775 233.483 147.009 233.752C147.243 234.021 147.607 234.155 148.101 234.155C148.638 234.155 149.071 233.977 149.401 233.622C149.739 233.258 149.908 232.777 149.908 232.179V228.461H151.091V235H149.947V233.557H150.116C149.934 234.051 149.643 234.437 149.245 234.714C148.846 234.983 148.378 235.117 147.841 235.117ZM153.009 235V230.06C153.009 229.8 153 229.536 152.983 229.267C152.974 228.99 152.952 228.721 152.918 228.461H154.062L154.205 230.099L154.01 230.112C154.096 229.713 154.244 229.384 154.452 229.124C154.668 228.855 154.924 228.66 155.219 228.539C155.522 228.409 155.834 228.344 156.155 228.344C156.293 228.344 156.41 228.348 156.506 228.357C156.601 228.366 156.696 228.387 156.792 228.422L156.766 229.475C156.636 229.423 156.514 229.393 156.402 229.384C156.298 229.367 156.168 229.358 156.012 229.358C155.63 229.358 155.301 229.445 155.024 229.618C154.755 229.791 154.547 230.021 154.4 230.307C154.261 230.593 154.192 230.901 154.192 231.23V235H153.009ZM163.64 235.117C163.068 235.117 162.565 234.983 162.132 234.714C161.699 234.445 161.361 234.055 161.118 233.544C160.875 233.033 160.754 232.426 160.754 231.724C160.754 231.022 160.875 230.42 161.118 229.917C161.361 229.406 161.699 229.016 162.132 228.747C162.565 228.478 163.068 228.344 163.64 228.344C164.221 228.344 164.723 228.491 165.148 228.786C165.581 229.072 165.867 229.466 166.006 229.969H165.85L165.993 228.461H167.137C167.111 228.721 167.085 228.981 167.059 229.241C167.042 229.501 167.033 229.757 167.033 230.008V235H165.85V233.505H165.993C165.854 233.999 165.568 234.393 165.135 234.688C164.71 234.974 164.212 235.117 163.64 235.117ZM163.913 234.181C164.502 234.181 164.975 233.973 165.33 233.557C165.685 233.141 165.863 232.53 165.863 231.724C165.863 230.918 165.685 230.311 165.33 229.904C164.975 229.497 164.502 229.293 163.913 229.293C163.324 229.293 162.847 229.497 162.483 229.904C162.128 230.311 161.95 230.918 161.95 231.724C161.95 232.53 162.128 233.141 162.483 233.557C162.838 233.973 163.315 234.181 163.913 234.181ZM171.764 235.117C171.114 235.117 170.551 234.983 170.074 234.714C169.598 234.437 169.225 234.042 168.956 233.531C168.696 233.011 168.566 232.396 168.566 231.685C168.566 230.983 168.701 230.385 168.969 229.891C169.238 229.388 169.611 229.007 170.087 228.747C170.564 228.478 171.123 228.344 171.764 228.344C172.189 228.344 172.601 228.418 172.999 228.565C173.398 228.704 173.723 228.907 173.974 229.176L173.571 230.008C173.32 229.765 173.043 229.588 172.739 229.475C172.436 229.354 172.137 229.293 171.842 229.293C171.201 229.293 170.698 229.501 170.334 229.917C169.97 230.324 169.788 230.918 169.788 231.698C169.788 232.487 169.97 233.093 170.334 233.518C170.698 233.943 171.201 234.155 171.842 234.155C172.128 234.155 172.423 234.099 172.726 233.986C173.03 233.873 173.311 233.696 173.571 233.453L173.974 234.272C173.714 234.549 173.381 234.762 172.973 234.909C172.575 235.048 172.172 235.117 171.764 235.117ZM178.041 235.117C177.391 235.117 176.828 234.983 176.351 234.714C175.874 234.437 175.502 234.042 175.233 233.531C174.973 233.011 174.843 232.396 174.843 231.685C174.843 230.983 174.977 230.385 175.246 229.891C175.515 229.388 175.887 229.007 176.364 228.747C176.841 228.478 177.4 228.344 178.041 228.344C178.466 228.344 178.877 228.418 179.276 228.565C179.675 228.704 180 228.907 180.251 229.176L179.848 230.008C179.597 229.765 179.319 229.588 179.016 229.475C178.713 229.354 178.414 229.293 178.119 229.293C177.478 229.293 176.975 229.501 176.611 229.917C176.247 230.324 176.065 230.918 176.065 231.698C176.065 232.487 176.247 233.093 176.611 233.518C176.975 233.943 177.478 234.155 178.119 234.155C178.405 234.155 178.7 234.099 179.003 233.986C179.306 233.873 179.588 233.696 179.848 233.453L180.251 234.272C179.991 234.549 179.657 234.762 179.25 234.909C178.851 235.048 178.448 235.117 178.041 235.117ZM184.265 235.117C183.624 235.117 183.069 234.983 182.601 234.714C182.133 234.437 181.769 234.047 181.509 233.544C181.249 233.033 181.119 232.426 181.119 231.724C181.119 231.031 181.249 230.433 181.509 229.93C181.769 229.419 182.133 229.029 182.601 228.76C183.069 228.483 183.624 228.344 184.265 228.344C184.907 228.344 185.461 228.483 185.929 228.76C186.406 229.029 186.77 229.419 187.021 229.93C187.281 230.433 187.411 231.031 187.411 231.724C187.411 232.426 187.281 233.033 187.021 233.544C186.77 234.047 186.406 234.437 185.929 234.714C185.461 234.983 184.907 235.117 184.265 235.117ZM184.265 234.181C184.855 234.181 185.327 233.973 185.682 233.557C186.038 233.141 186.215 232.53 186.215 231.724C186.215 230.918 186.038 230.311 185.682 229.904C185.327 229.497 184.855 229.293 184.265 229.293C183.667 229.293 183.191 229.497 182.835 229.904C182.489 230.311 182.315 230.918 182.315 231.724C182.315 232.53 182.489 233.141 182.835 233.557C183.191 233.973 183.667 234.181 184.265 234.181ZM191.268 235.117C190.479 235.117 189.886 234.905 189.487 234.48C189.097 234.055 188.902 233.401 188.902 232.517V228.461H190.085V232.491C190.085 233.063 190.202 233.483 190.436 233.752C190.67 234.021 191.034 234.155 191.528 234.155C192.065 234.155 192.499 233.977 192.828 233.622C193.166 233.258 193.335 232.777 193.335 232.179V228.461H194.518V235H193.374V233.557H193.543C193.361 234.051 193.071 234.437 192.672 234.714C192.273 234.983 191.805 235.117 191.268 235.117ZM196.449 235V230.008C196.449 229.757 196.44 229.501 196.423 229.241C196.406 228.981 196.38 228.721 196.345 228.461H197.489L197.619 229.865H197.463C197.662 229.371 197.97 228.994 198.386 228.734C198.802 228.474 199.287 228.344 199.842 228.344C200.613 228.344 201.194 228.556 201.584 228.981C201.974 229.397 202.169 230.047 202.169 230.931V235H200.986V230.996C200.986 230.398 200.869 229.969 200.635 229.709C200.401 229.44 200.037 229.306 199.543 229.306C198.954 229.306 198.486 229.484 198.139 229.839C197.801 230.194 197.632 230.675 197.632 231.282V235H196.449ZM206.49 235.117C205.805 235.117 205.285 234.931 204.93 234.558C204.583 234.177 204.41 233.605 204.41 232.842V229.371H203.136V228.461H204.41V226.706L205.593 226.381V228.461H207.439V229.371H205.593V232.738C205.593 233.241 205.679 233.6 205.853 233.817C206.035 234.025 206.295 234.129 206.633 234.129C206.806 234.129 206.953 234.116 207.075 234.09C207.205 234.055 207.322 234.016 207.426 233.973V234.948C207.296 235 207.144 235.039 206.971 235.065C206.806 235.1 206.646 235.117 206.49 235.117ZM208.616 235V233.557H210.059V235H208.616ZM219.329 235.117C218.411 235.117 217.622 234.926 216.963 234.545C216.313 234.164 215.815 233.622 215.468 232.92C215.122 232.209 214.948 231.373 214.948 230.411C214.948 229.449 215.122 228.617 215.468 227.915C215.815 227.213 216.313 226.671 216.963 226.29C217.622 225.909 218.411 225.718 219.329 225.718C219.988 225.718 220.573 225.818 221.084 226.017C221.596 226.208 222.042 226.489 222.423 226.862L221.981 227.837C221.565 227.473 221.154 227.213 220.746 227.057C220.348 226.892 219.884 226.81 219.355 226.81C218.341 226.81 217.566 227.122 217.028 227.746C216.491 228.37 216.222 229.258 216.222 230.411C216.222 231.564 216.491 232.456 217.028 233.089C217.566 233.713 218.341 234.025 219.355 234.025C219.884 234.025 220.348 233.947 220.746 233.791C221.154 233.626 221.565 233.362 221.981 232.998L222.423 233.96C222.042 234.333 221.591 234.619 221.071 234.818C220.56 235.017 219.979 235.117 219.329 235.117ZM223.997 235V225.432H225.18V235H223.997ZM227.1 235V228.461H228.283V235H227.1ZM226.996 227.031V225.757H228.4V227.031H226.996ZM233.011 235.117C232.361 235.117 231.797 234.983 231.321 234.714C230.844 234.437 230.471 234.042 230.203 233.531C229.943 233.011 229.813 232.396 229.813 231.685C229.813 230.983 229.947 230.385 230.216 229.891C230.484 229.388 230.857 229.007 231.334 228.747C231.81 228.478 232.369 228.344 233.011 228.344C233.435 228.344 233.847 228.418 234.246 228.565C234.644 228.704 234.969 228.907 235.221 229.176L234.818 230.008C234.566 229.765 234.289 229.588 233.986 229.475C233.682 229.354 233.383 229.293 233.089 229.293C232.447 229.293 231.945 229.501 231.581 229.917C231.217 230.324 231.035 230.918 231.035 231.698C231.035 232.487 231.217 233.093 231.581 233.518C231.945 233.943 232.447 234.155 233.089 234.155C233.375 234.155 233.669 234.099 233.973 233.986C234.276 233.873 234.558 233.696 234.818 233.453L235.221 234.272C234.961 234.549 234.627 234.762 234.22 234.909C233.821 235.048 233.418 235.117 233.011 235.117ZM236.606 235V225.432H237.789V231.347H237.815L240.766 228.461H242.235L238.725 231.893L238.738 231.334L242.547 235H241.039L237.815 231.958H237.789V235H236.606ZM249.477 235.117C248.836 235.117 248.281 234.983 247.813 234.714C247.345 234.437 246.981 234.047 246.721 233.544C246.461 233.033 246.331 232.426 246.331 231.724C246.331 231.031 246.461 230.433 246.721 229.93C246.981 229.419 247.345 229.029 247.813 228.76C248.281 228.483 248.836 228.344 249.477 228.344C250.119 228.344 250.673 228.483 251.141 228.76C251.618 229.029 251.982 229.419 252.233 229.93C252.493 230.433 252.623 231.031 252.623 231.724C252.623 232.426 252.493 233.033 252.233 233.544C251.982 234.047 251.618 234.437 251.141 234.714C250.673 234.983 250.119 235.117 249.477 235.117ZM249.477 234.181C250.067 234.181 250.539 233.973 250.894 233.557C251.25 233.141 251.427 232.53 251.427 231.724C251.427 230.918 251.25 230.311 250.894 229.904C250.539 229.497 250.067 229.293 249.477 229.293C248.879 229.293 248.403 229.497 248.047 229.904C247.701 230.311 247.527 230.918 247.527 231.724C247.527 232.53 247.701 233.141 248.047 233.557C248.403 233.973 248.879 234.181 249.477 234.181ZM254.153 235V230.008C254.153 229.757 254.144 229.501 254.127 229.241C254.11 228.981 254.084 228.721 254.049 228.461H255.193L255.323 229.865H255.167C255.366 229.371 255.674 228.994 256.09 228.734C256.506 228.474 256.991 228.344 257.546 228.344C258.317 228.344 258.898 228.556 259.288 228.981C259.678 229.397 259.873 230.047 259.873 230.931V235H258.69V230.996C258.69 230.398 258.573 229.969 258.339 229.709C258.105 229.44 257.741 229.306 257.247 229.306C256.658 229.306 256.19 229.484 255.843 229.839C255.505 230.194 255.336 230.675 255.336 231.282V235H254.153ZM267.563 235.117C266.878 235.117 266.358 234.931 266.003 234.558C265.656 234.177 265.483 233.605 265.483 232.842V229.371H264.209V228.461H265.483V226.706L266.666 226.381V228.461H268.512V229.371H266.666V232.738C266.666 233.241 266.753 233.6 266.926 233.817C267.108 234.025 267.368 234.129 267.706 234.129C267.879 234.129 268.027 234.116 268.148 234.09C268.278 234.055 268.395 234.016 268.499 233.973V234.948C268.369 235 268.217 235.039 268.044 235.065C267.879 235.1 267.719 235.117 267.563 235.117ZM269.694 235V225.432H270.877V229.878H270.708C270.899 229.375 271.207 228.994 271.631 228.734C272.056 228.474 272.546 228.344 273.1 228.344C273.889 228.344 274.47 228.556 274.842 228.981C275.224 229.406 275.414 230.047 275.414 230.905V235H274.231V230.97C274.231 230.389 274.119 229.969 273.893 229.709C273.668 229.44 273.3 229.306 272.788 229.306C272.216 229.306 271.753 229.484 271.397 229.839C271.051 230.194 270.877 230.667 270.877 231.256V235H269.694ZM280.268 235.117C279.228 235.117 278.405 234.818 277.798 234.22C277.2 233.622 276.901 232.799 276.901 231.75C276.901 231.057 277.031 230.459 277.291 229.956C277.56 229.445 277.928 229.05 278.396 228.773C278.864 228.487 279.41 228.344 280.034 228.344C280.632 228.344 281.139 228.474 281.555 228.734C281.971 228.985 282.288 229.345 282.504 229.813C282.721 230.281 282.829 230.836 282.829 231.477V231.867H277.824V231.165H282.023L281.802 231.334C281.802 230.658 281.651 230.134 281.347 229.761C281.053 229.388 280.615 229.202 280.034 229.202C279.402 229.202 278.912 229.423 278.565 229.865C278.219 230.298 278.045 230.892 278.045 231.646V231.763C278.045 232.56 278.24 233.163 278.63 233.57C279.029 233.977 279.579 234.181 280.281 234.181C280.671 234.181 281.035 234.125 281.373 234.012C281.711 233.899 282.036 233.713 282.348 233.453L282.738 234.272C282.444 234.541 282.075 234.749 281.633 234.896C281.2 235.043 280.745 235.117 280.268 235.117ZM291.079 235.117C290.498 235.117 289.996 234.974 289.571 234.688C289.146 234.393 288.865 233.99 288.726 233.479H288.869V235H287.686V225.432H288.869V229.956H288.726C288.873 229.453 289.155 229.059 289.571 228.773C289.996 228.487 290.498 228.344 291.079 228.344C291.66 228.344 292.167 228.483 292.6 228.76C293.033 229.029 293.367 229.414 293.601 229.917C293.844 230.42 293.965 231.026 293.965 231.737C293.965 232.439 293.844 233.046 293.601 233.557C293.367 234.06 293.029 234.445 292.587 234.714C292.154 234.983 291.651 235.117 291.079 235.117ZM290.806 234.181C291.395 234.181 291.868 233.977 292.223 233.57C292.587 233.154 292.769 232.543 292.769 231.737C292.769 230.931 292.587 230.324 292.223 229.917C291.868 229.501 291.395 229.293 290.806 229.293C290.208 229.293 289.731 229.497 289.376 229.904C289.029 230.311 288.856 230.918 288.856 231.724C288.856 232.53 289.029 233.141 289.376 233.557C289.731 233.973 290.208 234.181 290.806 234.181ZM297.826 235.117C297.037 235.117 296.443 234.905 296.045 234.48C295.655 234.055 295.46 233.401 295.46 232.517V228.461H296.643V232.491C296.643 233.063 296.76 233.483 296.994 233.752C297.228 234.021 297.592 234.155 298.086 234.155C298.623 234.155 299.056 233.977 299.386 233.622C299.724 233.258 299.893 232.777 299.893 232.179V228.461H301.076V235H299.932V233.557H300.101C299.919 234.051 299.628 234.437 299.23 234.714C298.831 234.983 298.363 235.117 297.826 235.117ZM305.45 235.117C304.766 235.117 304.246 234.931 303.89 234.558C303.544 234.177 303.37 233.605 303.37 232.842V229.371H302.096V228.461H303.37V226.706L304.553 226.381V228.461H306.399V229.371H304.553V232.738C304.553 233.241 304.64 233.6 304.813 233.817C304.995 234.025 305.255 234.129 305.593 234.129C305.767 234.129 305.914 234.116 306.035 234.09C306.165 234.055 306.282 234.016 306.386 233.973V234.948C306.256 235 306.105 235.039 305.931 235.065C305.767 235.1 305.606 235.117 305.45 235.117ZM309.81 235.117C309.125 235.117 308.605 234.931 308.25 234.558C307.903 234.177 307.73 233.605 307.73 232.842V229.371H306.456V228.461H307.73V226.706L308.913 226.381V228.461H310.759V229.371H308.913V232.738C308.913 233.241 309 233.6 309.173 233.817C309.355 234.025 309.615 234.129 309.953 234.129C310.126 234.129 310.274 234.116 310.395 234.09C310.525 234.055 310.642 234.016 310.746 233.973V234.948C310.616 235 310.464 235.039 310.291 235.065C310.126 235.1 309.966 235.117 309.81 235.117ZM314.634 235.117C313.992 235.117 313.438 234.983 312.97 234.714C312.502 234.437 312.138 234.047 311.878 233.544C311.618 233.033 311.488 232.426 311.488 231.724C311.488 231.031 311.618 230.433 311.878 229.93C312.138 229.419 312.502 229.029 312.97 228.76C313.438 228.483 313.992 228.344 314.634 228.344C315.275 228.344 315.83 228.483 316.298 228.76C316.774 229.029 317.138 229.419 317.39 229.93C317.65 230.433 317.78 231.031 317.78 231.724C317.78 232.426 317.65 233.033 317.39 233.544C317.138 234.047 316.774 234.437 316.298 234.714C315.83 234.983 315.275 235.117 314.634 235.117ZM314.634 234.181C315.223 234.181 315.695 233.973 316.051 233.557C316.406 233.141 316.584 232.53 316.584 231.724C316.584 230.918 316.406 230.311 316.051 229.904C315.695 229.497 315.223 229.293 314.634 229.293C314.036 229.293 313.559 229.497 313.204 229.904C312.857 230.311 312.684 230.918 312.684 231.724C312.684 232.53 312.857 233.141 313.204 233.557C313.559 233.973 314.036 234.181 314.634 234.181ZM319.309 235V230.008C319.309 229.757 319.301 229.501 319.283 229.241C319.266 228.981 319.24 228.721 319.205 228.461H320.349L320.479 229.865H320.323C320.523 229.371 320.83 228.994 321.246 228.734C321.662 228.474 322.148 228.344 322.702 228.344C323.474 228.344 324.054 228.556 324.444 228.981C324.834 229.397 325.029 230.047 325.029 230.931V235H323.846V230.996C323.846 230.398 323.729 229.969 323.495 229.709C323.261 229.44 322.897 229.306 322.403 229.306C321.814 229.306 321.346 229.484 320.999 229.839C320.661 230.194 320.492 230.675 320.492 231.282V235H319.309ZM333.668 235.117C333.088 235.117 332.585 234.974 332.16 234.688C331.736 234.393 331.454 233.99 331.315 233.479H331.458V235H330.275V225.432H331.458V229.956H331.315C331.463 229.453 331.744 229.059 332.16 228.773C332.585 228.487 333.088 228.344 333.668 228.344C334.249 228.344 334.756 228.483 335.189 228.76C335.623 229.029 335.956 229.414 336.19 229.917C336.433 230.42 336.554 231.026 336.554 231.737C336.554 232.439 336.433 233.046 336.19 233.557C335.956 234.06 335.618 234.445 335.176 234.714C334.743 234.983 334.24 235.117 333.668 235.117ZM333.395 234.181C333.985 234.181 334.457 233.977 334.812 233.57C335.176 233.154 335.358 232.543 335.358 231.737C335.358 230.931 335.176 230.324 334.812 229.917C334.457 229.501 333.985 229.293 333.395 229.293C332.797 229.293 332.321 229.497 331.965 229.904C331.619 230.311 331.445 230.918 331.445 231.724C331.445 232.53 331.619 233.141 331.965 233.557C332.321 233.973 332.797 234.181 333.395 234.181ZM341.065 235.117C340.025 235.117 339.202 234.818 338.595 234.22C337.997 233.622 337.698 232.799 337.698 231.75C337.698 231.057 337.828 230.459 338.088 229.956C338.357 229.445 338.725 229.05 339.193 228.773C339.661 228.487 340.207 228.344 340.831 228.344C341.429 228.344 341.936 228.474 342.352 228.734C342.768 228.985 343.084 229.345 343.301 229.813C343.518 230.281 343.626 230.836 343.626 231.477V231.867H338.621V231.165H342.82L342.599 231.334C342.599 230.658 342.447 230.134 342.144 229.761C341.849 229.388 341.412 229.202 340.831 229.202C340.198 229.202 339.709 229.423 339.362 229.865C339.015 230.298 338.842 230.892 338.842 231.646V231.763C338.842 232.56 339.037 233.163 339.427 233.57C339.826 233.977 340.376 234.181 341.078 234.181C341.468 234.181 341.832 234.125 342.17 234.012C342.508 233.899 342.833 233.713 343.145 233.453L343.535 234.272C343.24 234.541 342.872 234.749 342.43 234.896C341.997 235.043 341.542 235.117 341.065 235.117ZM345.114 235V225.432H346.297V235H345.114ZM350.972 235.117C350.331 235.117 349.776 234.983 349.308 234.714C348.84 234.437 348.476 234.047 348.216 233.544C347.956 233.033 347.826 232.426 347.826 231.724C347.826 231.031 347.956 230.433 348.216 229.93C348.476 229.419 348.84 229.029 349.308 228.76C349.776 228.483 350.331 228.344 350.972 228.344C351.613 228.344 352.168 228.483 352.636 228.76C353.113 229.029 353.477 229.419 353.728 229.93C353.988 230.433 354.118 231.031 354.118 231.724C354.118 232.426 353.988 233.033 353.728 233.544C353.477 234.047 353.113 234.437 352.636 234.714C352.168 234.983 351.613 235.117 350.972 235.117ZM350.972 234.181C351.561 234.181 352.034 233.973 352.389 233.557C352.744 233.141 352.922 232.53 352.922 231.724C352.922 230.918 352.744 230.311 352.389 229.904C352.034 229.497 351.561 229.293 350.972 229.293C350.374 229.293 349.897 229.497 349.542 229.904C349.195 230.311 349.022 230.918 349.022 231.724C349.022 232.53 349.195 233.141 349.542 233.557C349.897 233.973 350.374 234.181 350.972 234.181ZM357.314 235L354.87 228.461H356.105L358.081 234.064H357.743L359.771 228.461H360.733L362.748 234.064H362.423L364.412 228.461H365.595L363.138 235H362.02L359.94 229.306H360.512L358.445 235H357.314ZM372.638 235.117C371.953 235.117 371.433 234.931 371.078 234.558C370.731 234.177 370.558 233.605 370.558 232.842V229.371H369.284V228.461H370.558V226.706L371.741 226.381V228.461H373.587V229.371H371.741V232.738C371.741 233.241 371.828 233.6 372.001 233.817C372.183 234.025 372.443 234.129 372.781 234.129C372.954 234.129 373.102 234.116 373.223 234.09C373.353 234.055 373.47 234.016 373.574 233.973V234.948C373.444 235 373.292 235.039 373.119 235.065C372.954 235.1 372.794 235.117 372.638 235.117ZM377.462 235.117C376.82 235.117 376.266 234.983 375.798 234.714C375.33 234.437 374.966 234.047 374.706 233.544C374.446 233.033 374.316 232.426 374.316 231.724C374.316 231.031 374.446 230.433 374.706 229.93C374.966 229.419 375.33 229.029 375.798 228.76C376.266 228.483 376.82 228.344 377.462 228.344C378.103 228.344 378.658 228.483 379.126 228.76C379.602 229.029 379.966 229.419 380.218 229.93C380.478 230.433 380.608 231.031 380.608 231.724C380.608 232.426 380.478 233.033 380.218 233.544C379.966 234.047 379.602 234.437 379.126 234.714C378.658 234.983 378.103 235.117 377.462 235.117ZM377.462 234.181C378.051 234.181 378.523 233.973 378.879 233.557C379.234 233.141 379.412 232.53 379.412 231.724C379.412 230.918 379.234 230.311 378.879 229.904C378.523 229.497 378.051 229.293 377.462 229.293C376.864 229.293 376.387 229.497 376.032 229.904C375.685 230.311 375.512 230.918 375.512 231.724C375.512 232.53 375.685 233.141 376.032 233.557C376.387 233.973 376.864 234.181 377.462 234.181ZM388.315 235.117C387.665 235.117 387.101 234.983 386.625 234.714C386.148 234.437 385.775 234.042 385.507 233.531C385.247 233.011 385.117 232.396 385.117 231.685C385.117 230.983 385.251 230.385 385.52 229.891C385.788 229.388 386.161 229.007 386.638 228.747C387.114 228.478 387.673 228.344 388.315 228.344C388.739 228.344 389.151 228.418 389.55 228.565C389.948 228.704 390.273 228.907 390.525 229.176L390.122 230.008C389.87 229.765 389.593 229.588 389.29 229.475C388.986 229.354 388.687 229.293 388.393 229.293C387.751 229.293 387.249 229.501 386.885 229.917C386.521 230.324 386.339 230.918 386.339 231.698C386.339 232.487 386.521 233.093 386.885 233.518C387.249 233.943 387.751 234.155 388.393 234.155C388.679 234.155 388.973 234.099 389.277 233.986C389.58 233.873 389.862 233.696 390.122 233.453L390.525 234.272C390.265 234.549 389.931 234.762 389.524 234.909C389.125 235.048 388.722 235.117 388.315 235.117ZM394.539 235.117C393.898 235.117 393.343 234.983 392.875 234.714C392.407 234.437 392.043 234.047 391.783 233.544C391.523 233.033 391.393 232.426 391.393 231.724C391.393 231.031 391.523 230.433 391.783 229.93C392.043 229.419 392.407 229.029 392.875 228.76C393.343 228.483 393.898 228.344 394.539 228.344C395.181 228.344 395.735 228.483 396.203 228.76C396.68 229.029 397.044 229.419 397.295 229.93C397.555 230.433 397.685 231.031 397.685 231.724C397.685 232.426 397.555 233.033 397.295 233.544C397.044 234.047 396.68 234.437 396.203 234.714C395.735 234.983 395.181 235.117 394.539 235.117ZM394.539 234.181C395.129 234.181 395.601 233.973 395.956 233.557C396.312 233.141 396.489 232.53 396.489 231.724C396.489 230.918 396.312 230.311 395.956 229.904C395.601 229.497 395.129 229.293 394.539 229.293C393.941 229.293 393.465 229.497 393.109 229.904C392.763 230.311 392.589 230.918 392.589 231.724C392.589 232.53 392.763 233.141 393.109 233.557C393.465 233.973 393.941 234.181 394.539 234.181ZM399.215 235V230.008C399.215 229.757 399.206 229.501 399.189 229.241C399.172 228.981 399.146 228.721 399.111 228.461H400.255L400.385 229.865H400.229C400.428 229.371 400.736 228.994 401.152 228.734C401.568 228.474 402.053 228.344 402.608 228.344C403.379 228.344 403.96 228.556 404.35 228.981C404.74 229.397 404.935 230.047 404.935 230.931V235H403.752V230.996C403.752 230.398 403.635 229.969 403.401 229.709C403.167 229.44 402.803 229.306 402.309 229.306C401.72 229.306 401.252 229.484 400.905 229.839C400.567 230.194 400.398 230.675 400.398 231.282V235H399.215ZM409.256 235.117C408.571 235.117 408.051 234.931 407.696 234.558C407.349 234.177 407.176 233.605 407.176 232.842V229.371H405.902V228.461H407.176V226.706L408.359 226.381V228.461H410.205V229.371H408.359V232.738C408.359 233.241 408.445 233.6 408.619 233.817C408.801 234.025 409.061 234.129 409.399 234.129C409.572 234.129 409.719 234.116 409.841 234.09C409.971 234.055 410.088 234.016 410.192 233.973V234.948C410.062 235 409.91 235.039 409.737 235.065C409.572 235.1 409.412 235.117 409.256 235.117ZM411.387 235V228.461H412.57V235H411.387ZM411.283 227.031V225.757H412.687V227.031H411.283ZM414.49 235V230.008C414.49 229.757 414.481 229.501 414.464 229.241C414.446 228.981 414.42 228.721 414.386 228.461H415.53L415.66 229.865H415.504C415.703 229.371 416.011 228.994 416.427 228.734C416.843 228.474 417.328 228.344 417.883 228.344C418.654 228.344 419.235 228.556 419.625 228.981C420.015 229.397 420.21 230.047 420.21 230.931V235H419.027V230.996C419.027 230.398 418.91 229.969 418.676 229.709C418.442 229.44 418.078 229.306 417.584 229.306C416.994 229.306 416.526 229.484 416.18 229.839C415.842 230.194 415.673 230.675 415.673 231.282V235H414.49ZM424.413 235.117C423.625 235.117 423.031 234.905 422.632 234.48C422.242 234.055 422.047 233.401 422.047 232.517V228.461H423.23V232.491C423.23 233.063 423.347 233.483 423.581 233.752C423.815 234.021 424.179 234.155 424.673 234.155C425.211 234.155 425.644 233.977 425.973 233.622C426.311 233.258 426.48 232.777 426.48 232.179V228.461H427.663V235H426.519V233.557H426.688C426.506 234.051 426.216 234.437 425.817 234.714C425.419 234.983 424.951 235.117 424.413 235.117ZM432.571 235.117C431.531 235.117 430.708 234.818 430.101 234.22C429.503 233.622 429.204 232.799 429.204 231.75C429.204 231.057 429.334 230.459 429.594 229.956C429.863 229.445 430.231 229.05 430.699 228.773C431.167 228.487 431.713 228.344 432.337 228.344C432.935 228.344 433.442 228.474 433.858 228.734C434.274 228.985 434.591 229.345 434.807 229.813C435.024 230.281 435.132 230.836 435.132 231.477V231.867H430.127V231.165H434.326L434.105 231.334C434.105 230.658 433.954 230.134 433.65 229.761C433.356 229.388 432.918 229.202 432.337 229.202C431.705 229.202 431.215 229.423 430.868 229.865C430.522 230.298 430.348 230.892 430.348 231.646V231.763C430.348 232.56 430.543 233.163 430.933 233.57C431.332 233.977 431.882 234.181 432.584 234.181C432.974 234.181 433.338 234.125 433.676 234.012C434.014 233.899 434.339 233.713 434.651 233.453L435.041 234.272C434.747 234.541 434.378 234.749 433.936 234.896C433.503 235.043 433.048 235.117 432.571 235.117Z" fill="#5B6871"/>
<rect x="205" y="272" width="160" height="40" rx="6" fill="#FF8600"/>
<g clip-path="url(#clip0_28_1975)">
<path d="M261.773 297.126C260.765 297.126 259.906 296.921 259.197 296.51C258.488 296.099 257.942 295.516 257.559 294.76C257.186 293.995 256.999 293.094 256.999 292.058C256.999 291.022 257.186 290.126 257.559 289.37C257.942 288.614 258.488 288.031 259.197 287.62C259.906 287.209 260.765 287.004 261.773 287.004C262.473 287.004 263.098 287.107 263.649 287.312C264.2 287.517 264.68 287.816 265.091 288.208L264.587 289.37C264.139 288.987 263.7 288.712 263.271 288.544C262.851 288.376 262.361 288.292 261.801 288.292C260.737 288.292 259.925 288.619 259.365 289.272C258.805 289.925 258.525 290.854 258.525 292.058C258.525 293.262 258.805 294.195 259.365 294.858C259.925 295.511 260.737 295.838 261.801 295.838C262.361 295.838 262.851 295.754 263.271 295.586C263.7 295.418 264.139 295.138 264.587 294.746L265.091 295.908C264.68 296.3 264.2 296.603 263.649 296.818C263.098 297.023 262.473 297.126 261.773 297.126ZM269.241 297.126C268.541 297.126 267.934 296.981 267.421 296.692C266.907 296.393 266.511 295.973 266.231 295.432C265.951 294.881 265.811 294.228 265.811 293.472C265.811 292.716 265.951 292.067 266.231 291.526C266.511 290.975 266.907 290.555 267.421 290.266C267.934 289.967 268.541 289.818 269.241 289.818C269.941 289.818 270.547 289.967 271.061 290.266C271.583 290.555 271.985 290.975 272.265 291.526C272.554 292.067 272.699 292.716 272.699 293.472C272.699 294.228 272.554 294.881 272.265 295.432C271.985 295.973 271.583 296.393 271.061 296.692C270.547 296.981 269.941 297.126 269.241 297.126ZM269.241 296.02C269.857 296.02 270.347 295.805 270.711 295.376C271.075 294.947 271.257 294.312 271.257 293.472C271.257 292.632 271.075 292.002 270.711 291.582C270.347 291.153 269.857 290.938 269.241 290.938C268.634 290.938 268.149 291.153 267.785 291.582C267.421 292.002 267.239 292.632 267.239 293.472C267.239 294.312 267.416 294.947 267.771 295.376C268.135 295.805 268.625 296.02 269.241 296.02ZM274.267 297V291.638C274.267 291.367 274.253 291.092 274.225 290.812C274.207 290.523 274.183 290.233 274.155 289.944H275.527L275.653 291.428H275.485C275.7 290.905 276.031 290.509 276.479 290.238C276.927 289.958 277.445 289.818 278.033 289.818C278.864 289.818 279.489 290.047 279.909 290.504C280.339 290.961 280.553 291.671 280.553 292.632V297H279.139V292.716C279.139 292.091 279.013 291.643 278.761 291.372C278.519 291.092 278.145 290.952 277.641 290.952C277.044 290.952 276.568 291.139 276.213 291.512C275.859 291.876 275.681 292.371 275.681 292.996V297H274.267ZM285.226 297.126C284.461 297.126 283.882 296.921 283.49 296.51C283.098 296.09 282.902 295.465 282.902 294.634V291.036H281.53V289.944H282.902V288.082L284.316 287.704V289.944H286.276V291.036H284.316V294.508C284.316 295.031 284.41 295.404 284.596 295.628C284.783 295.852 285.054 295.964 285.408 295.964C285.586 295.964 285.74 295.95 285.87 295.922C286.01 295.885 286.136 295.843 286.248 295.796V296.944C286.108 297 285.945 297.042 285.758 297.07C285.572 297.107 285.394 297.126 285.226 297.126ZM287.484 297V289.944H288.898V297H287.484ZM287.372 288.474V287.004H289.01V288.474H287.372ZM290.887 297V291.638C290.887 291.367 290.873 291.092 290.845 290.812C290.826 290.523 290.803 290.233 290.775 289.944H292.147L292.273 291.428H292.105C292.319 290.905 292.651 290.509 293.099 290.238C293.547 289.958 294.065 289.818 294.653 289.818C295.483 289.818 296.109 290.047 296.529 290.504C296.958 290.961 297.173 291.671 297.173 292.632V297H295.759V292.716C295.759 292.091 295.633 291.643 295.381 291.372C295.138 291.092 294.765 290.952 294.261 290.952C293.663 290.952 293.187 291.139 292.833 291.512C292.478 291.876 292.301 292.371 292.301 292.996V297H290.887ZM301.607 297.126C300.758 297.126 300.119 296.897 299.689 296.44C299.269 295.973 299.059 295.259 299.059 294.298V289.944H300.473V294.27C300.473 294.858 300.595 295.292 300.837 295.572C301.08 295.852 301.449 295.992 301.943 295.992C302.503 295.992 302.956 295.805 303.301 295.432C303.647 295.059 303.819 294.564 303.819 293.948V289.944H305.233V297H303.861V295.488H304.043C303.847 296.011 303.535 296.417 303.105 296.706C302.676 296.986 302.177 297.126 301.607 297.126ZM310.483 297.126C309.344 297.126 308.448 296.804 307.795 296.16C307.141 295.516 306.815 294.625 306.815 293.486C306.815 292.749 306.955 292.105 307.235 291.554C307.524 291.003 307.921 290.579 308.425 290.28C308.938 289.972 309.531 289.818 310.203 289.818C310.865 289.818 311.421 289.958 311.869 290.238C312.317 290.518 312.657 290.915 312.891 291.428C313.124 291.932 313.241 292.529 313.241 293.22V293.668H307.921V292.856H312.275L312.037 293.038C312.037 292.338 311.878 291.797 311.561 291.414C311.253 291.022 310.805 290.826 310.217 290.826C309.563 290.826 309.059 291.055 308.705 291.512C308.35 291.96 308.173 292.581 308.173 293.374V293.514C308.173 294.345 308.373 294.97 308.775 295.39C309.185 295.81 309.764 296.02 310.511 296.02C310.921 296.02 311.304 295.964 311.659 295.852C312.023 295.731 312.368 295.535 312.695 295.264L313.157 296.23C312.83 296.519 312.433 296.743 311.967 296.902C311.5 297.051 311.005 297.126 310.483 297.126Z" fill="#F6F8F9"/>
</g>
<path d="M302.1 80.6C305.247 80.6 307.8 83.152 307.8 86.3C307.8 88.0932 306.957 89.7794 305.52 90.86L303.869 92.095C295.961 92.855 289.334 98.0325 286.496 105.134L279.68 110.24C278.326 111.249 276.474 111.249 275.12 110.24L249.28 90.86C247.845 89.7794 247 88.0932 247 86.3C247 83.152 249.552 80.6 252.7 80.6H302.1ZM281.96 113.28L285.095 110.929C285.036 111.582 285 112.235 285 112.9C285 117.947 286.793 122.59 289.774 126.2H254.6C250.402 126.2 247 122.792 247 118.6V93.9L272.84 113.28C275.548 115.311 279.252 115.311 281.96 113.28ZM323 112.9C323 122.341 315.341 130 305.9 130C296.459 130 288.8 122.341 288.8 112.9C288.8 103.459 296.459 95.8 305.9 95.8C315.341 95.8 323 103.459 323 112.9ZM311.208 107.758L304 114.966L300.592 111.558C299.856 110.81 298.644 110.81 297.908 111.558C297.16 112.294 297.16 113.506 297.908 114.242L302.658 118.992C303.394 119.74 304.606 119.74 305.342 118.992L313.892 110.442C314.64 109.706 314.64 108.494 313.892 107.758C313.156 107.01 311.944 107.01 311.208 107.758Z" fill="#84919A"/>
<rect x="40.5" y="0.5" width="488" height="384" rx="7.5" stroke="#DDE2E4"/>
</g>
<defs>
<filter id="filter0_d_28_1975" x="0" y="0" width="589" height="485" filterUnits="userSpaceOnUse" color-interpolation-filters="sRGB">
<feFlood flood-opacity="0" result="BackgroundImageFix"/>
<feColorMatrix in="SourceAlpha" type="matrix" values="0 0 0 0 0 0 0 0 0 0 0 0 0 0 0 0 0 0 127 0" result="hardAlpha"/>
<feOffset dx="10" dy="50"/>
<feGaussianBlur stdDeviation="25"/>
<feColorMatrix type="matrix" values="0 0 0 0 0 0 0 0 0 0 0 0 0 0 0 0 0 0 0.06 0"/>
<feBlend mode="normal" in2="BackgroundImageFix" result="effect1_dropShadow_28_1975"/>
<feBlend mode="normal" in="SourceGraphic" in2="effect1_dropShadow_28_1975" result="shape"/>
</filter>
<clipPath id="clip0_28_1975">
<rect width="58" height="24" fill="white" transform="translate(256 280)"/>
</clipPath>
</defs>
</svg>
